<svg width="15" height="8" viewBox="0 0 15 8" fill="none" xmlns="http://www.w3.org/2000/svg">
<path d="M7.50013 7.75011C7.33467 7.74867 7.17624 7.68301 7.05826 7.56699L0.808257 1.31699C0.694409 1.19911 0.631412 1.04123 0.632836 0.877361C0.63426 0.713488 0.699991 0.55673 0.815871 0.44085C0.931751 0.32497 1.08851 0.259239 1.25238 0.257815C1.41625 0.256391 1.57413 0.319388 1.69201 0.433237L7.50013 6.24136L13.3083 0.433237C13.3659 0.373543 13.4349 0.325929 13.5111 0.293173C13.5874 0.260418 13.6694 0.243176 13.7524 0.242455C13.8354 0.241734 13.9177 0.257548 13.9945 0.288973C14.0713 0.320399 14.1411 0.366807 14.1998 0.42549C14.2584 0.484173 14.3048 0.553955 14.3363 0.630765C14.3677 0.707576 14.3835 0.789876 14.3828 0.872863C14.3821 0.95585 14.3648 1.03786 14.3321 1.11411C14.2993 1.19037 14.2517 1.25933 14.192 1.31699L7.94201 7.56699C7.82403 7.68301 7.6656 7.74867 7.50013 7.75011Z" fill="black"/>
</svg>
