<svg width="28" height="27" viewBox="0 0 28 27" fill="none" xmlns="http://www.w3.org/2000/svg">
<g clip-path="url(#clip0_5_3814)">
<path d="M14.4723 0.666235C15.9065 0.644043 17.3325 0.657194 18.7569 0.644043C18.8432 2.32158 19.4465 4.03034 20.6745 5.21637C21.8999 6.43199 23.6334 6.98843 25.3199 7.17665V11.5895C23.7394 11.5377 22.1515 11.209 20.7172 10.5284C20.0925 10.2457 19.5106 9.88158 18.941 9.50925C18.9336 12.7114 18.9542 15.9095 18.9205 19.0986C18.835 20.6306 18.3295 22.1553 17.4386 23.4177C16.0051 25.5194 13.5172 26.8895 10.9619 26.9323C9.39447 27.0219 7.82871 26.5945 6.49309 25.8071C4.27967 24.5019 2.72214 22.1125 2.49529 19.5482C2.46671 19.0051 2.46232 18.461 2.48214 17.9175C2.6794 15.8323 3.7109 13.8375 5.312 12.4805C7.12679 10.8999 9.66899 10.1471 12.0493 10.5925C12.0715 12.2158 12.0065 13.8375 12.0065 15.4608C10.9191 15.109 9.64844 15.2076 8.6983 15.8676C8.00316 16.3255 7.47784 16.9993 7.20323 17.7851C6.97638 18.3408 7.04131 18.958 7.05446 19.5482C7.31501 21.3465 9.04433 22.858 10.8904 22.6945C12.1142 22.6813 13.2871 21.9712 13.9249 20.9314C14.1312 20.5673 14.3621 20.195 14.3745 19.7668C14.4821 17.8065 14.4394 15.8545 14.4525 13.8942C14.4616 9.47637 14.4394 5.07089 14.4731 0.667057L14.4723 0.666235Z" fill="black"/>
</g>
<defs>
<clipPath id="clip0_5_3814">
<rect width="26.3014" height="26.3014" fill="white" transform="translate(0.739746 0.644043)"/>
</clipPath>
</defs>
</svg>
