<svg width="27" height="27" viewBox="0 0 27 27" fill="none" xmlns="http://www.w3.org/2000/svg">
<path d="M16.9396 5.3125C16.722 5.70229 16.528 6.10485 16.3588 6.51798C14.6961 6.25502 13.0023 6.25502 11.3396 6.51798C11.1704 6.10485 10.9764 5.70229 10.7588 5.3125C9.19252 5.58012 7.66991 6.05939 6.23276 6.73716C3.66283 10.446 2.49734 14.9486 2.94508 19.4385C4.61987 20.6976 6.49956 21.6578 8.50125 22.2769C8.95704 21.6748 9.36383 21.0371 9.71769 20.37C9.06462 20.1292 8.43692 19.8246 7.84371 19.4604C8.00641 19.3522 8.16031 19.2313 8.30399 19.0988C10.0338 19.932 11.9292 20.3647 13.8492 20.3647C15.7692 20.3647 17.6646 19.932 19.3944 19.0988C19.5478 19.2303 19.7012 19.3509 19.8547 19.4604C19.2582 19.8217 18.6312 20.1297 17.9807 20.381C18.3199 21.0632 18.7158 21.7158 19.1643 22.3317C21.1635 21.7147 23.0399 20.7542 24.7095 19.4933C25.168 15.0026 24.0015 10.4963 21.4218 6.79195C20.0008 6.10016 18.4932 5.60255 16.9396 5.3125ZM10.2108 16.8741C9.66244 16.8348 9.15061 16.5845 8.78281 16.1758C8.415 15.7671 8.21982 15.2319 8.23823 14.6824C8.21704 14.1321 8.41126 13.5953 8.77962 13.186C9.14797 12.7768 9.66142 12.5273 10.2108 12.4906C10.7603 12.5273 11.2737 12.7768 11.6421 13.186C12.0104 13.5953 12.2046 14.1321 12.1834 14.6824C12.2046 15.2326 12.0104 15.7694 11.6421 16.1787C11.2737 16.588 10.7603 16.8375 10.2108 16.8741ZM17.4875 16.8741C16.9391 16.8348 16.4273 16.5845 16.0595 16.1758C15.6917 15.7671 15.4965 15.2319 15.5149 14.6824C15.4938 14.1321 15.688 13.5953 16.0563 13.186C16.4247 12.7768 16.9381 12.5273 17.4875 12.4906C18.038 12.5245 18.5531 12.7732 18.922 13.1831C19.2909 13.593 19.4842 14.1314 19.4602 14.6824C19.4842 15.2333 19.2909 15.7717 18.922 16.1816C18.5531 16.5915 18.038 16.8402 17.4875 16.8741Z" fill="black"/>
</svg>
