<svg width="30" height="30" viewBox="0 0 30 30" fill="none" xmlns="http://www.w3.org/2000/svg">
<path d="M20.3425 7.39736H16.6438C15.9629 7.39736 15.4109 7.94934 15.4109 8.63024V12.3289H20.3425C20.4826 12.3258 20.6157 12.391 20.699 12.5038C20.7823 12.6166 20.8058 12.7628 20.7616 12.896L19.8493 15.6083C19.7652 15.8572 19.5326 16.0255 19.2699 16.0275H15.4109V25.2741C15.4109 25.6145 15.1349 25.8905 14.7945 25.8905H11.7123C11.3719 25.8905 11.0959 25.6145 11.0959 25.2741V16.0275H9.24657C8.90612 16.0275 8.63013 15.7515 8.63013 15.4111V12.9453C8.63013 12.6049 8.90612 12.3289 9.24657 12.3289H11.0959V8.63024C11.0959 5.90664 13.3038 3.69873 16.0274 3.69873H20.3425C20.6829 3.69873 20.9589 3.97472 20.9589 4.31517V6.78092C20.9589 7.12137 20.6829 7.39736 20.3425 7.39736Z" fill="black"/>
</svg>
