<svg width="31" height="30" viewBox="0 0 31 30" fill="none" xmlns="http://www.w3.org/2000/svg">
<path d="M26.35 8.28163C25.7774 9.04543 25.0853 9.71169 24.3003 10.2547C24.3003 10.4542 24.3003 10.6537 24.3003 10.8643C24.3066 14.4876 22.8593 17.9618 20.283 20.5082C17.7065 23.0546 14.2165 24.4601 10.5954 24.4095C8.50185 24.4165 6.43516 23.9386 4.55718 23.0129C4.45591 22.9686 4.39061 22.8685 4.39099 22.7579V22.636C4.39099 22.4769 4.51996 22.3479 4.67905 22.3479C6.73691 22.28 8.72134 21.5665 10.3516 20.3083C8.48896 20.2707 6.81306 19.1673 6.04178 17.4706C6.00284 17.378 6.01496 17.2716 6.0738 17.1902C6.13263 17.1087 6.22968 17.0638 6.32985 17.0717C6.89595 17.1285 7.46771 17.0759 8.01389 16.9165C5.95769 16.4896 4.41267 14.7826 4.19156 12.6932C4.1837 12.593 4.22862 12.496 4.31009 12.437C4.39154 12.3782 4.49778 12.366 4.59042 12.4051C5.1422 12.6486 5.73787 12.7768 6.34093 12.7819C4.5392 11.5994 3.76097 9.35011 4.44638 7.30621C4.51714 7.1076 4.68711 6.96088 4.89385 6.91997C5.10058 6.87905 5.3136 6.94998 5.45459 7.10669C7.88591 9.69433 11.2266 11.2363 14.7722 11.4075C14.6814 11.0451 14.6368 10.6726 14.6392 10.299C14.6724 8.33997 15.8846 6.59482 17.7082 5.88057C19.5318 5.16633 21.606 5.62433 22.9598 7.04018C23.8825 6.86438 24.7746 6.55444 25.6077 6.12017C25.6687 6.08207 25.7461 6.08207 25.8071 6.12017C25.8452 6.18122 25.8452 6.25863 25.8071 6.31968C25.4036 7.2437 24.722 8.01869 23.8572 8.53658C24.6145 8.44876 25.3584 8.27013 26.0731 8.00453C26.1332 7.96358 26.2123 7.96358 26.2724 8.00453C26.3229 8.02759 26.3606 8.07169 26.3755 8.12508C26.3904 8.17848 26.381 8.23575 26.35 8.28163Z" fill="black"/>
</svg>
