<svg width="30" height="30" viewBox="0 0 30 30" fill="none" xmlns="http://www.w3.org/2000/svg">
<path fill-rule="evenodd" clip-rule="evenodd" d="M19.9727 3.69873H10.1097C6.70521 3.69873 3.94531 6.45862 3.94531 9.86311V19.7261C3.94531 23.1306 6.70521 25.8905 10.1097 25.8905H19.9727C23.3772 25.8905 26.1371 23.1306 26.1371 19.7261V9.86311C26.1371 6.45862 23.3772 3.69873 19.9727 3.69873ZM23.9796 19.7261C23.9728 21.9362 22.1828 23.7262 19.9727 23.733H10.1097C7.89958 23.7262 6.10962 21.9362 6.10285 19.7261V9.86311C6.10962 7.653 7.89958 5.86303 10.1097 5.85626H19.9727C22.1828 5.86303 23.9728 7.653 23.9796 9.86311V19.7261ZM20.8974 10.1713C21.5783 10.1713 22.1302 9.61935 22.1302 8.93846C22.1302 8.25756 21.5783 7.70558 20.8974 7.70558C20.2164 7.70558 19.6645 8.25756 19.6645 8.93846C19.6645 9.61935 20.2164 10.1713 20.8974 10.1713ZM15.0412 9.24668C11.9772 9.24668 9.49326 11.7306 9.49326 14.7946C9.49326 17.8587 11.9772 20.3426 15.0412 20.3426C18.1053 20.3426 20.5891 17.8587 20.5891 14.7946C20.5925 13.3222 20.009 11.9092 18.9678 10.868C17.9266 9.82685 16.5136 9.2434 15.0412 9.24668ZM11.6508 14.7946C11.6508 16.6671 13.1687 18.185 15.0412 18.185C16.9137 18.185 18.4316 16.6671 18.4316 14.7946C18.4316 12.9221 16.9137 11.4042 15.0412 11.4042C13.1687 11.4042 11.6508 12.9221 11.6508 14.7946Z" fill="black"/>
</svg>
