<svg width="19" height="20" viewBox="0 0 19 20" fill="none" xmlns="http://www.w3.org/2000/svg">
<path d="M6.06071 15.2786C4.9652 15.2786 4.07715 16.1667 4.07715 17.2621C4.07715 18.3576 4.96524 19.2457 6.06071 19.2457C7.15623 19.2457 8.04428 18.3576 8.04428 17.2621C8.04432 16.1667 7.15623 15.2786 6.06071 15.2786ZM6.06071 18.3641C5.4521 18.3641 4.95874 17.8708 4.95874 17.2622C4.95874 16.6536 5.4521 16.1602 6.06071 16.1602C6.66933 16.1602 7.16269 16.6536 7.16269 17.2622C7.16273 17.8708 6.66933 18.3641 6.06071 18.3641Z" fill="black"/>
<path d="M14.4357 15.2786C13.3402 15.2786 12.4521 16.1667 12.4521 17.2621C12.4521 18.3576 13.3402 19.2457 14.4357 19.2457C15.5312 19.2457 16.4193 18.3576 16.4193 17.2621C16.4193 16.1667 15.5312 15.2786 14.4357 15.2786ZM14.4357 18.3641C13.8271 18.3641 13.3337 17.8708 13.3337 17.2622C13.3337 16.6536 13.8271 16.1602 14.4357 16.1602C15.0443 16.1602 15.5377 16.6536 15.5377 17.2622C15.5377 17.8708 15.0443 18.3641 14.4357 18.3641Z" fill="black"/>
<path d="M18.9101 3.70776C18.8183 3.60749 18.6928 3.54472 18.5575 3.53143L4.20961 3.33307L3.8129 2.12087C3.53342 1.31053 2.77459 0.763464 1.91746 0.754395H0.440797C0.197344 0.754395 0 0.951739 0 1.19519C0 1.43864 0.197344 1.63599 0.440797 1.63599H1.91746C2.39673 1.64658 2.81876 1.95432 2.97539 2.40739L5.77445 10.8486L5.55407 11.3555C5.30825 11.9894 5.38208 12.7029 5.75242 13.273C6.11923 13.833 6.73632 14.1786 7.40542 14.1987H15.9789C16.2224 14.1987 16.4197 14.0013 16.4197 13.7579C16.4197 13.5144 16.2224 13.3171 15.9789 13.3171H7.40538C7.02753 13.3076 6.67971 13.1089 6.4797 12.7881C6.28194 12.4713 6.24131 12.081 6.36952 11.7302L6.54585 11.3335L15.8246 10.3637C16.8438 10.2515 17.6822 9.51018 17.9184 8.51236L18.9763 4.08237C19.024 3.9548 18.9987 3.81133 18.9101 3.70776ZM17.0588 8.31405C16.9157 8.95637 16.3704 9.43015 15.7144 9.48217L6.54585 10.4299L4.49614 4.21467L18.0065 4.41302L17.0588 8.31405Z" fill="black"/>
</svg>
