<svg width="32" height="32" viewBox="0 0 32 32" fill="none" xmlns="http://www.w3.org/2000/svg">
<path d="M16.7083 0.027C18.4533 0 20.1883 0.016 21.9213 0C22.0263 2.041 22.7603 4.12 24.2543 5.563C25.7453 7.042 27.8543 7.719 29.9063 7.948V13.317C27.9833 13.254 26.0513 12.854 24.3063 12.026C23.5463 11.682 22.8383 11.239 22.1453 10.786C22.1363 14.682 22.1613 18.573 22.1203 22.453C22.0163 24.317 21.4013 26.172 20.3173 27.708C18.5733 30.265 15.5463 31.932 12.4373 31.984C10.5303 32.093 8.62527 31.573 7.00027 30.615C4.30727 29.027 2.41227 26.12 2.13627 23C2.1015 22.3392 2.09617 21.6772 2.12027 21.016C2.36027 18.479 3.61527 16.052 5.56327 14.401C7.77127 12.478 10.8643 11.562 13.7603 12.104C13.7873 14.079 13.7083 16.052 13.7083 18.027C12.3853 17.599 10.8393 17.719 9.68327 18.522C8.83751 19.0792 8.19837 19.8989 7.86427 20.855C7.58827 21.531 7.66727 22.282 7.68327 23C8.00027 25.188 10.1043 27.027 12.3503 26.828C13.8393 26.812 15.2663 25.948 16.0423 24.683C16.2933 24.24 16.5743 23.787 16.5893 23.266C16.7203 20.881 16.6683 18.506 16.6843 16.121C16.6953 10.746 16.6683 5.386 16.7093 0.028L16.7083 0.027Z" fill="white"/>
</svg>
