<svg width="16" height="28" viewBox="0 0 16 28" fill="none" xmlns="http://www.w3.org/2000/svg">
<path d="M14.75 5H10.25C9.42155 5 8.75 5.67158 8.75 6.5V11H14.75C14.9206 10.9962 15.0824 11.0756 15.1838 11.2129C15.2852 11.3501 15.3137 11.528 15.26 11.69L14.15 14.99C14.0477 15.2928 13.7647 15.4976 13.445 15.5H8.75V26.75C8.75 27.1642 8.41415 27.5 8 27.5H4.25C3.83579 27.5 3.5 27.1642 3.5 26.75V15.5H1.25C0.83579 15.5 0.5 15.1642 0.5 14.75V11.75C0.5 11.3358 0.83579 11 1.25 11H3.5V6.5C3.5 3.18629 6.18635 0.5 9.5 0.5H14.75C15.1642 0.5 15.5 0.83579 15.5 1.25V4.25C15.5 4.66421 15.1642 5 14.75 5Z" fill="white"/>
</svg>
