<svg width="36" height="36" viewBox="0 0 36 36" fill="none" xmlns="http://www.w3.org/2000/svg">
<path d="M31.4595 10.0761C30.7629 11.0054 29.9208 11.816 28.9658 12.4766C28.9658 12.7194 28.9658 12.9621 28.9658 13.2184C28.9734 17.6267 27.2126 21.8537 24.078 24.9518C20.9433 28.0499 16.6971 29.7599 12.2914 29.6984C9.74429 29.7069 7.22981 29.1254 4.94494 27.9992C4.82173 27.9453 4.74227 27.8235 4.74274 27.689V27.5406C4.74274 27.347 4.89965 27.1901 5.09321 27.1901C7.59694 27.1074 10.0113 26.2394 11.9948 24.7086C9.7286 24.6629 7.68959 23.3204 6.75121 21.2561C6.70382 21.1434 6.71857 21.014 6.79016 20.9148C6.86174 20.8157 6.97981 20.7611 7.10168 20.7707C7.79044 20.8398 8.48608 20.7758 9.15061 20.5818C6.64889 20.0625 4.76912 17.9856 4.5001 15.4436C4.49054 15.3216 4.54519 15.2036 4.64431 15.1319C4.74341 15.0603 4.87267 15.0455 4.98538 15.093C5.65672 15.3893 6.38144 15.5453 7.11517 15.5514C4.92307 14.1127 3.97622 11.3761 4.81013 8.88933C4.89622 8.6477 5.10302 8.46918 5.35456 8.41941C5.60608 8.36963 5.86525 8.45592 6.03679 8.64659C8.99489 11.7949 13.0594 13.6709 17.3732 13.8792C17.2628 13.4383 17.2085 12.9851 17.2115 12.5306C17.2518 10.1471 18.7266 8.02382 20.9454 7.15481C23.1641 6.28581 25.6877 6.84305 27.3348 8.56566C28.4574 8.35178 29.5428 7.97468 30.5564 7.44632C30.6306 7.39997 30.7248 7.39997 30.7991 7.44632C30.8454 7.5206 30.8454 7.61478 30.7991 7.68906C30.3081 8.81328 29.4788 9.75618 28.4267 10.3863C29.348 10.2794 30.2531 10.0621 31.1226 9.73896C31.1958 9.68913 31.292 9.68913 31.3652 9.73896C31.4265 9.76701 31.4724 9.82067 31.4906 9.88563C31.5087 9.9506 31.4973 10.0203 31.4595 10.0761Z" fill="white"/>
</svg>
