<svg width="35" height="29" viewBox="0 0 35 29" fill="none" xmlns="http://www.w3.org/2000/svg">
<path d="M17.5066 29C17.2884 28.9998 17.0724 28.9571 16.8708 28.8743C16.6693 28.7916 16.4863 28.6704 16.3322 28.5177L16.3189 28.5046L3.19627 15.5475C-0.398757 11.9953 -0.398757 6.21598 3.19627 2.66385C6.7913 -0.888278 12.6422 -0.887622 16.2379 2.66385L17.5066 3.91723L18.7621 2.67698C20.4916 0.968563 22.8372 0.00879456 25.2829 0.00879456C27.7287 0.00879456 30.0743 0.968563 31.8037 2.67698C35.3988 6.2291 35.3988 12.0084 31.8037 15.5606L26.4085 20.8898C26.0966 21.1974 25.6738 21.37 25.233 21.3696C24.7923 21.3692 24.3697 21.1959 24.0583 20.8878C23.747 20.5796 23.5722 20.1619 23.5726 19.7265C23.573 19.2911 23.7484 18.8737 24.0603 18.5661L29.4569 13.2376C30.5633 12.1442 31.1848 10.6615 31.1846 9.11546C31.1845 7.56945 30.5626 6.08683 29.4559 4.99377C28.3491 3.9007 26.8482 3.28673 25.2832 3.28691C23.7182 3.2871 22.2174 3.90143 21.111 4.99475L18.6811 7.39521C18.5269 7.5476 18.3438 7.66848 18.1423 7.75095C17.9407 7.83342 17.7248 7.87587 17.5066 7.87587C17.2885 7.87587 17.0725 7.83342 16.871 7.75095C16.6695 7.66848 16.4864 7.5476 16.3322 7.39521L13.889 4.98228C13.3412 4.44092 12.6908 4.01146 11.975 3.71841C11.2591 3.42536 10.4919 3.27447 9.71702 3.27435C8.15211 3.2741 6.6512 3.88799 5.54447 4.98097C4.43773 6.07395 3.81584 7.55648 3.81559 9.10243C3.81534 10.6484 4.43676 12.1311 5.54314 13.2244L17.5066 25.041L18.7774 23.7857C19.0893 23.4802 19.5109 23.3092 19.9501 23.3101C20.3893 23.311 20.8102 23.4837 21.1208 23.7904C21.4314 24.0971 21.6063 24.5129 21.6074 24.9468C21.6084 25.3806 21.4354 25.7972 21.1263 26.1054L18.6811 28.5216C18.3692 28.8285 17.9468 29.0006 17.5066 29Z" fill="white"/>
</svg>
