<svg width="34" height="35" viewBox="0 0 34 35" fill="none" xmlns="http://www.w3.org/2000/svg">
<path d="M15.5394 1.08418L8.99874 7.80172C8.83768 7.96713 8.70992 8.1635 8.62275 8.37961C8.53559 8.59573 8.49072 8.82737 8.49072 9.06129C8.49072 9.29521 8.53559 9.52685 8.62275 9.74297C8.70992 9.95908 8.83768 10.1554 8.99874 10.3209C9.324 10.6549 9.76514 10.8426 10.2251 10.8426C10.6851 10.8426 11.1262 10.6549 11.4515 10.3209L15.0315 6.64406L15.0315 26.0937C15.0315 26.5662 15.2142 27.0192 15.5395 27.3533C15.8647 27.6873 16.3059 27.875 16.7659 27.875C17.2258 27.875 17.667 27.6873 17.9922 27.3533C18.3175 27.0192 18.5002 26.5662 18.5002 26.0937L18.5002 6.64406L22.0802 10.3209C22.4055 10.6549 22.8466 10.8426 23.3066 10.8426C23.7666 10.8425 24.2077 10.6549 24.533 10.3208C24.8583 9.98676 25.041 9.53368 25.041 9.06126C25.041 8.58884 24.8582 8.13577 24.533 7.80172L17.9922 1.08418C17.6669 0.750137 17.2258 0.562473 16.7658 0.562473C16.3058 0.562473 15.8647 0.750137 15.5394 1.08418Z" fill="white"/>
<path d="M26.5937 14.2187C26.5937 14.6912 26.7765 15.1442 27.1017 15.4783C27.427 15.8123 27.8681 16 28.3281 16L30.0625 16L30.0625 31.4375L3.46875 31.4375L3.46875 16L5.20312 16C5.66311 16 6.10425 15.8123 6.42951 15.4783C6.75477 15.1442 6.9375 14.6912 6.9375 14.2187C6.9375 13.7463 6.75477 13.2933 6.42951 12.9592C6.10425 12.6252 5.66311 12.4375 5.20312 12.4375L2.89062 12.4375C2.51102 12.4375 2.13514 12.5143 1.78443 12.6635C1.43372 12.8127 1.11506 13.0314 0.846644 13.307C0.578224 13.5827 0.365302 13.91 0.220035 14.2702C0.0747673 14.6303 -8.73511e-07 15.0164 -8.5647e-07 15.4062L-1.29768e-07 32.0312C-9.53515e-08 32.8186 0.304547 33.5737 0.846644 34.1305C1.38874 34.6872 2.12398 35 2.89062 35L30.6406 35C31.4073 35 32.1425 34.6872 32.6846 34.1305C33.2267 33.5737 33.5312 32.8186 33.5312 32.0312L33.5312 15.4062C33.5312 15.0164 33.4565 14.6303 33.3112 14.2702C33.1659 13.91 32.953 13.5827 32.6846 13.307C32.4162 13.0314 32.0975 12.8127 31.7468 12.6635C31.3961 12.5143 31.0202 12.4375 30.6406 12.4375L28.3281 12.4375C27.8681 12.4375 27.427 12.6252 27.1017 12.9592C26.7765 13.2933 26.5937 13.7463 26.5937 14.2187Z" fill="white"/>
</svg>
