<svg width="19" height="20" viewBox="0 0 19 20" fill="none" xmlns="http://www.w3.org/2000/svg">
<g clip-path="url(#clip0_5_396)">
<path d="M18.8197 18.4663L13.9142 13.6392C15.1988 12.2435 15.9881 10.3978 15.9881 8.36665C15.9875 4.02174 12.4087 0.5 7.99375 0.5C3.57877 0.5 0 4.02174 0 8.36665C0 12.7116 3.57877 16.2333 7.99375 16.2333C9.90132 16.2333 11.6509 15.5735 13.0252 14.4766L17.9497 19.3227C18.1897 19.5591 18.5792 19.5591 18.8192 19.3227C19.0597 19.0864 19.0597 18.7027 18.8197 18.4663ZM7.99375 15.023C4.2582 15.023 1.22995 12.0428 1.22995 8.36665C1.22995 4.69046 4.2582 1.71033 7.99375 1.71033C11.7293 1.71033 14.7575 4.69046 14.7575 8.36665C14.7575 12.0428 11.7293 15.023 7.99375 15.023Z" fill="black"/>
</g>
<defs>
<clipPath id="clip0_5_396">
<rect width="19" height="19" fill="white" transform="translate(0 0.5)"/>
</clipPath>
</defs>
</svg>
